# xmcd CD database file
#
# Track frame offsets:
#	150
#	14918
#	30701
#	49833
#	72003
#
# Disc length: 1273 seconds
#
# Revision: 0
# Processed by: cddbd v1.5.2PL0 Copyright (c) Steve Scherf et al.
# Submitted via: CDex 1.51
#
DISCID=4004f705
DTITLE=Alison Dewar - Introducing Alison Dewar
DYEAR=2006
DGENRE=Jazz
TTITLE0=Softly, as in a Morning Sunrise
TTITLE1=O Barquino
TTITLE2=Too Close for Comfort
TTITLE3=Peace
TTITLE4=Star Eyes
EXTD=YEAR: 2006
EXTT0=
EXTT1=
EXTT2=
EXTT3=
EXTT4=
PLAYORDER=
